<?xml version="1.0" standalone="no"?><!DOCTYPE svg PUBLIC "-//W3C//DTD SVG 1.1//EN" "http://www.w3.org/Graphics/SVG/1.1/DTD/svg11.dtd"><svg t="1626255003907" class="icon" viewBox="0 0 1024 1024" version="1.1" xmlns="http://www.w3.org/2000/svg" p-id="1582" xmlns:xlink="http://www.w3.org/1999/xlink" width="200" height="200"><defs><style type="text/css"></style></defs><path d="M896 426.666667a384 384 0 1 0-768 0h85.333333a298.666667 298.666667 0 1 1 597.333334 0h85.333333zM896 938.666667a384 384 0 1 0-768 0 42.666667 42.666667 0 0 0 85.333333 0 298.666667 298.666667 0 1 1 597.333334 0 42.666667 42.666667 0 0 0 85.333333 0z" p-id="1583"></path><path d="M512 640a213.333333 213.333333 0 1 0 0-426.666667 213.333333 213.333333 0 0 0 0 426.666667z m0-85.333333a128 128 0 1 1 0-256 128 128 0 0 1 0 256zM789.333333 362.666667v120.32a64 64 0 0 0 128 0V362.666667a64 64 0 1 0-128 0zM106.666667 341.333333v141.653334a64 64 0 0 0 128 0V341.333333a64 64 0 0 0-128 0z" p-id="1584"></path></svg>