<?xml version="1.0" standalone="no"?><!DOCTYPE svg PUBLIC "-//W3C//DTD SVG 1.1//EN" "http://www.w3.org/Graphics/SVG/1.1/DTD/svg11.dtd"><svg t="1626254990685" class="icon" viewBox="0 0 1024 1024" version="1.1" xmlns="http://www.w3.org/2000/svg" p-id="1447" xmlns:xlink="http://www.w3.org/1999/xlink" width="200" height="200"><defs><style type="text/css"></style></defs><path d="M896 566.442667V853.333333a128 128 0 0 1-128 128H256a128 128 0 0 1-128-128v-286.890666c-49.493333-43.221333-69.162667-127.232-69.162667-230.4 0-3.797333 0.469333-7.466667 1.408-10.922667a42.666667 42.666667 0 0 1 3.157334-12.544L151.850667 102.4A103.381333 103.381333 0 0 1 244.906667 42.666667h534.186666c39.765333 0 75.733333 23.338667 93.866667 61.525333l87.552 208.426667a42.666667 42.666667 0 0 1 3.114667 12.16c0.981333 3.584 1.536 7.338667 1.536 11.264 0 103.168-19.669333 187.136-69.162667 230.4z m-85.333333 31.573333a183.125333 183.125333 0 0 1-5.632 0.128c-48.213333 0-95.488-24.618667-140.330667-65.450667-38.784 39.424-97.066667 64.768-152.746667 64.768-55.722667 0-114.346667-25.344-153.301333-64.768-44.8 41.002667-91.434667 65.450667-139.733333 65.450667-1.877333 0-3.754667 0-5.589334-0.085333V853.333333a42.666667 42.666667 0 0 0 42.666667 42.666667h512a42.666667 42.666667 0 0 0 42.666667-42.666667v-255.274666z m69.12-257.28L795.093333 139.093333A18.133333 18.133333 0 0 0 779.093333 128H244.906667a17.493333 17.493333 0 0 0-15.189334 9.258667L144.213333 340.650667c0.768 105.386667 27.221333 172.16 74.752 172.16 29.866667 0 70.058667-26.837333 110.336-71.850667a42.453333 42.453333 0 0 1 41.6-16.64 42.453333 42.453333 0 0 1 33.066667 27.562667c16.085333 32.426667 65.066667 60.245333 108.074667 60.245333 42.752 0 91.136-27.733333 107.306666-60.245333a42.496 42.496 0 0 1 33.066667-27.562667 42.453333 42.453333 0 0 1 41.6 16.64c39.978667 44.672 81.066667 71.850667 111.061333 71.850667 47.530667 0 73.984-66.730667 74.752-172.032z" p-id="1448"></path></svg>